<svg width="50" height="50" viewBox="0 0 50 50" fill="none" xmlns="http://www.w3.org/2000/svg">
<rect width="50" height="50" rx="5" fill="#F4C237"/>
<path d="M29.5205 22.54C29.8187 22.2525 29.8275 21.7778 29.54 21.4795C29.2525 21.1813 28.7778 21.1725 28.4795 21.46L23.8141 25.9568L21.5221 23.7343C21.2247 23.4459 20.7499 23.4533 20.4616 23.7506C20.1732 24.048 20.1805 24.5228 20.4779 24.8112L23.2904 27.5384C23.5807 27.8199 24.0418 27.8206 24.333 27.54L29.5205 22.54Z" fill="#0D0B4E"/>
<path fill-rule="evenodd" clip-rule="evenodd" d="M27.567 16.3938C26.9136 13.7027 23.0864 13.7027 22.433 16.3938C22.2506 17.1451 21.3899 17.5016 20.7297 17.0994C18.3647 15.6585 15.6585 18.3647 17.0994 20.7297C17.5016 21.3899 17.1451 22.2506 16.3938 22.433C13.7027 23.0864 13.7027 26.9136 16.3938 27.567C17.1451 27.7494 17.5016 28.6101 17.0994 29.2704C15.6585 31.6353 18.3647 34.3415 20.7297 32.9007C21.3899 32.4984 22.2506 32.8549 22.433 33.6062C23.0864 36.2973 26.9136 36.2973 27.567 33.6062C27.7494 32.8549 28.6101 32.4984 29.2704 32.9007C31.6353 34.3415 34.3415 31.6353 32.9007 29.2704C32.4984 28.6101 32.8549 27.7494 33.6062 27.567C36.2973 26.9136 36.2973 23.0864 33.6062 22.433C32.8549 22.2506 32.4984 21.3899 32.9007 20.7297C34.3415 18.3647 31.6353 15.6585 29.2704 17.0994C28.6101 17.5016 27.7494 17.1451 27.567 16.3938ZM23.8906 16.7477C24.173 15.5847 25.827 15.5847 26.1094 16.7477C26.5315 18.4861 28.5231 19.3111 30.0508 18.3803C31.0728 17.7576 32.2424 18.9272 31.6197 19.9492C30.6889 21.4769 31.5139 23.4686 33.2523 23.8906C34.4153 24.173 34.4153 25.827 33.2523 26.1094C31.5139 26.5315 30.6889 28.5231 31.6197 30.0508C32.2424 31.0728 31.0728 32.2424 30.0508 31.6197C28.5231 30.6889 26.5315 31.5139 26.1094 33.2523C25.827 34.4153 24.173 34.4153 23.8906 33.2523C23.4686 31.5139 21.4769 30.6889 19.9492 31.6197C18.9272 32.2424 17.7576 31.0728 18.3803 30.0508C19.3111 28.5231 18.4861 26.5315 16.7477 26.1094C15.5847 25.827 15.5847 24.173 16.7477 23.8906C18.4861 23.4686 19.3111 21.4769 18.3803 19.9492C17.7576 18.9272 18.9272 17.7576 19.9492 18.3803C21.4769 19.3111 23.4686 18.4861 23.8906 16.7477Z" fill="#0D0B4E"/>
</svg>
