<svg width="50" height="50" viewBox="0 0 50 50" fill="none" xmlns="http://www.w3.org/2000/svg">
<rect width="50" height="50" rx="5" fill="#F4C237"/>
<path d="M25 18.25C25.4142 18.25 25.75 18.5858 25.75 19V24.6893L28.5303 27.4697C28.8232 27.7626 28.8232 28.2374 28.5303 28.5303C28.2374 28.8232 27.7626 28.8232 27.4697 28.5303L24.4697 25.5303C24.3978 25.4584 24.3435 25.3755 24.3069 25.2871C24.2702 25.1987 24.25 25.1017 24.25 25V19C24.25 18.5858 24.5858 18.25 25 18.25Z" fill="#0D0B4E"/>
<path fill-rule="evenodd" clip-rule="evenodd" d="M25 14.25C19.0629 14.25 14.25 19.0629 14.25 25C14.25 30.9371 19.0629 35.75 25 35.75C30.9371 35.75 35.75 30.9371 35.75 25C35.75 19.0629 30.9371 14.25 25 14.25ZM15.75 25C15.75 19.8914 19.8914 15.75 25 15.75C30.1086 15.75 34.25 19.8914 34.25 25C34.25 30.1086 30.1086 34.25 25 34.25C19.8914 34.25 15.75 30.1086 15.75 25Z" fill="#0D0B4E"/>
</svg>
