<svg width="50" height="50" viewBox="0 0 50 50" fill="none" xmlns="http://www.w3.org/2000/svg">
<rect width="50" height="50" rx="5" fill="#F4C237"/>
<path fill-rule="evenodd" clip-rule="evenodd" d="M18.9479 16.9081C18.8407 16.508 18.4295 16.2706 18.0294 16.3778C17.232 16.5914 16.5274 17.0622 16.0249 17.7171C15.5223 18.3721 15.25 19.1745 15.25 20C15.25 20.8255 15.5223 21.6279 16.0249 22.2829C16.5274 22.9378 17.232 23.4086 18.0294 23.6222C18.4295 23.7294 18.8407 23.492 18.9479 23.0919C19.0551 22.6918 18.8177 22.2805 18.4176 22.1733C17.9392 22.0451 17.5164 21.7627 17.2149 21.3697C16.9134 20.9768 16.75 20.4953 16.75 20C16.75 19.5047 16.9134 19.0232 17.2149 18.6303C17.5164 18.2373 17.9392 17.9549 18.4176 17.8267C18.8177 17.7195 19.0551 17.3082 18.9479 16.9081Z" fill="#0D0B4E"/>
<path fill-rule="evenodd" clip-rule="evenodd" d="M17.75 27C17.75 26.5858 17.4142 26.25 17 26.25H16.6925C15.3636 26.25 14.1685 27.0591 13.675 28.293C12.8211 30.4278 14.3933 32.75 16.6925 32.75H17C17.4142 32.75 17.75 32.4142 17.75 32C17.75 31.5858 17.4142 31.25 17 31.25H16.6925C15.4545 31.25 14.6079 29.9996 15.0677 28.8501C15.3335 28.1857 15.977 27.75 16.6925 27.75H17C17.4142 27.75 17.75 27.4142 17.75 27Z" fill="#0D0B4E"/>
<path fill-rule="evenodd" clip-rule="evenodd" d="M25 16.75C23.205 16.75 21.75 18.2051 21.75 20C21.75 21.7949 23.205 23.25 25 23.25C26.7949 23.25 28.25 21.7949 28.25 20C28.25 18.2051 26.7949 16.75 25 16.75ZM20.25 20C20.25 17.3766 22.3766 15.25 25 15.25C27.6233 15.25 29.75 17.3766 29.75 20C29.75 22.6234 27.6233 24.75 25 24.75C22.3766 24.75 20.25 22.6234 20.25 20Z" fill="#0D0B4E"/>
<path fill-rule="evenodd" clip-rule="evenodd" d="M21.7096 26.0278H28.2903C28.3526 26.0278 28.3954 26.0278 28.4361 26.0287C29.8772 26.0598 31.1729 26.9142 31.7692 28.2265C31.786 28.2635 31.8029 28.3029 31.8275 28.3602L31.8385 28.3861C31.8898 28.5056 31.9241 28.5856 31.9489 28.6499C32.8761 31.0525 31.1611 33.6533 28.5875 33.7475C28.5187 33.75 28.4316 33.75 28.3014 33.75H21.6985C21.5683 33.75 21.4812 33.75 21.4124 33.7475C18.8388 33.6533 17.1238 31.0525 18.051 28.6499C18.0759 28.5856 18.1102 28.5056 18.1614 28.3859L18.1725 28.3602C18.197 28.3029 18.2139 28.2635 18.2307 28.2265C18.827 26.9142 20.1227 26.0598 21.5638 26.0287C21.6045 26.0278 21.6473 26.0278 21.7096 26.0278ZM21.7181 27.5278C21.6442 27.5278 21.6186 27.5278 21.5962 27.5283C20.7316 27.547 19.9541 28.0596 19.5963 28.847C19.5871 28.8674 19.577 28.8909 19.5479 28.9588C19.4861 29.1029 19.464 29.155 19.4505 29.1899C18.8941 30.6315 19.9231 32.192 21.4673 32.2485C21.5047 32.2499 21.5614 32.25 21.7181 32.25H28.2818C28.4386 32.25 28.4952 32.2499 28.5326 32.2485C30.0768 32.192 31.1058 30.6315 30.5494 29.1899C30.536 29.155 30.5138 29.1029 30.452 28.9588C30.4229 28.8909 30.4128 28.8674 30.4036 28.847C30.0458 28.0596 29.2683 27.547 28.4037 27.5283C28.3813 27.5278 28.3557 27.5278 28.2818 27.5278H21.7181Z" fill="#0D0B4E"/>
</svg>
