<svg width="50" height="50" viewBox="0 0 50 50" fill="none" xmlns="http://www.w3.org/2000/svg">
<rect width="50" height="50" rx="5" fill="#F4C237"/>
<path d="M20.7873 16.765C22.7473 15.7623 25.0007 15.4916 27.1425 16.0015C28.7136 16.3756 30.1491 17.1518 31.3148 18.2409L29.5981 19.232C29.3565 19.3715 29.2123 19.6336 29.2237 19.9124C29.2352 20.1912 29.4005 20.4405 29.6528 20.5597L33.7778 22.5083C34.0002 22.6133 34.26 22.6027 34.4731 22.4796C34.6862 22.3566 34.8253 22.137 34.8456 21.8918L35.2206 17.3451C35.2435 17.0671 35.1102 16.7993 34.8745 16.6499C34.6388 16.5006 34.3397 16.4945 34.0981 16.634L32.6642 17.4619C31.2553 16.0294 29.4648 15.0126 27.4899 14.5423C25.0008 13.9497 22.382 14.2643 20.1042 15.4296C17.8263 16.5948 16.0387 18.5343 15.0628 20.8995C14.0868 23.2647 13.9864 25.9004 14.7797 28.3329C15.573 30.7655 17.2079 32.8353 19.3905 34.1704C21.5732 35.5055 24.1605 36.0184 26.6874 35.6168C29.2143 35.2151 31.5151 33.9254 33.1762 31.9794C34.8374 30.0334 35.75 27.5586 35.75 25C35.75 24.5858 35.4142 24.25 35 24.25C34.5858 24.25 34.25 24.5858 34.25 25C34.25 27.2016 33.4647 29.331 32.0354 31.0055C30.606 32.68 28.6262 33.7898 26.4519 34.1354C24.2776 34.4809 22.0513 34.0396 20.1732 32.8908C18.2951 31.742 16.8884 29.961 16.2058 27.8679C15.5232 25.7748 15.6096 23.5068 16.4494 21.4717C17.2892 19.4365 18.8273 17.7676 20.7873 16.765Z" fill="#1A1A1A"/>
<path d="M25 19.25C25.4142 19.25 25.75 19.5858 25.75 20V24.6893L29.5303 28.4697C29.8232 28.7626 29.8232 29.2374 29.5303 29.5303C29.2374 29.8232 28.7626 29.8232 28.4697 29.5303L24.4697 25.5303C24.3978 25.4584 24.3435 25.3755 24.3069 25.2871C24.2702 25.1987 24.25 25.1017 24.25 25V20C24.25 19.5858 24.5858 19.25 25 19.25Z" fill="#1A1A1A"/>
</svg>
